<svg width="21" height="16" viewBox="0 0 21 16" fill="none" xmlns="http://www.w3.org/2000/svg">
<path d="M0.165072 8.39861L1.70229 9.93581C1.89637 10.1299 2.19965 10.1518 2.42599 9.99576C3.42841 9.30534 4.81136 9.40583 5.70283 10.2973C6.5943 11.1888 6.69479 12.5718 6.00437 13.5741C5.84837 13.8005 5.87024 14.1038 6.06432 14.2978L7.60152 15.835C7.82161 16.0552 8.1783 16.0552 8.39802 15.835L8.91588 15.3173C8.92728 15.3058 8.9384 15.2936 8.94915 15.2815C10.6323 13.326 11.6523 10.783 11.6523 8.00036C11.6523 5.21783 10.6326 2.67471 8.94952 0.7192C8.93876 0.706702 8.92765 0.694931 8.91624 0.68316L8.39839 0.165311C8.1783 -0.054778 7.82161 -0.054778 7.60188 0.165311L0.165072 7.60211C-0.055024 7.8222 -0.055024 8.17888 0.165072 8.39897V8.39861Z" fill="url(#paint0_linear_24151_159675)"/>
<path d="M12.4095 0.165066C12.6293 -0.0550221 12.9859 -0.0550221 13.206 0.165066L14.7432 1.70234C14.9373 1.89642 14.9592 2.1997 14.8032 2.42604C14.1128 3.42839 14.2133 4.81134 15.1048 5.70281C15.9963 6.59428 17.3792 6.69484 18.3816 6.00442C18.6079 5.84842 18.9112 5.87029 19.1053 6.06437L20.6425 7.60157V7.60121C20.8626 7.8213 20.8626 8.17799 20.6425 8.39808L18.6392 10.4012L16.412 8.17392C16.4033 8.16527 16.3929 8.16113 16.3833 8.15488C16.4311 8.06377 16.4605 7.96182 16.4605 7.85196C16.4605 7.48902 16.1648 7.19337 15.802 7.19337C15.439 7.19337 15.1434 7.48902 15.1434 7.85196C15.1434 8.21483 15.439 8.51048 15.802 8.51048C15.9385 8.51048 16.0654 8.46856 16.1704 8.3975C16.1731 8.40098 16.1746 8.40512 16.1776 8.40825L18.4049 10.6354L17.6146 11.4258L16.8053 10.6165C16.8521 10.526 16.8813 10.4249 16.8813 10.3163C16.8813 9.95345 16.5856 9.65779 16.2227 9.65779C15.8598 9.65779 15.5642 9.95345 15.5642 10.3163C15.5642 10.6793 15.8598 10.9749 16.2227 10.9749C16.3569 10.9749 16.4813 10.9343 16.5853 10.865L17.3803 11.6601L15.9124 13.128L15.229 12.4074V11.7659C15.229 11.7659 15.2297 11.7631 15.2297 11.7617V9.7375C15.2296 9.69347 15.2123 9.65154 15.1812 9.6203L13.9052 8.34453C13.9559 8.2513 13.9871 8.14624 13.9871 8.03325C13.9871 7.67031 13.6914 7.37465 13.3285 7.37465C12.9656 7.37465 12.6699 7.67031 12.6699 8.03325C12.6699 8.39612 12.9656 8.69177 13.3285 8.69177C13.4582 8.69177 13.5781 8.65297 13.6799 8.58816L14.8983 9.80645V10.7912L14.1888 10.0453C14.1867 10.0432 14.1839 10.0425 14.1819 10.0405C14.2154 9.96144 14.2342 9.87439 14.2342 9.78328C14.2342 9.42034 13.9385 9.12468 13.5757 9.12468C13.2128 9.12468 12.9171 9.42034 12.9171 9.78328C12.9171 10.1461 13.2127 10.4418 13.5757 10.4418C13.7268 10.4418 13.8647 10.3884 13.976 10.3024L14.8972 11.2712V12.4743C14.8972 12.5169 14.9136 12.5575 14.9426 12.5883L15.6773 13.3631L15.0962 13.9442L13.6411 12.4892C13.7039 12.3884 13.742 12.2702 13.742 12.1429C13.742 11.7801 13.4464 11.4844 13.0835 11.4844C12.7206 11.4844 12.4249 11.7801 12.4249 12.1429C12.4249 12.5059 12.7206 12.8015 13.0835 12.8015C13.1989 12.8015 13.3057 12.769 13.4003 12.7167L14.8621 14.1784L13.2057 15.8349C12.9859 16.055 12.6293 16.055 12.4092 15.8349L11.8913 15.317C11.8799 15.3053 11.8688 15.2934 11.858 15.281C10.1749 13.3254 9.15521 10.7824 9.15521 7.99983C9.15521 5.21722 10.1753 2.67418 11.8584 0.718668C11.8692 0.706533 11.8803 0.694399 11.8917 0.682918L12.4095 0.165066ZM13.0835 11.8157C13.2641 11.8157 13.4106 11.9627 13.4106 12.1429C13.4106 12.3232 13.2637 12.4705 13.0835 12.4705C12.9033 12.4705 12.756 12.3235 12.756 12.1429C12.756 11.9627 12.9029 11.8157 13.0835 11.8157ZM16.2227 9.98883C16.4033 9.98883 16.5499 10.1358 16.5499 10.316C16.5499 10.4962 16.4029 10.6432 16.2227 10.6432C16.0425 10.6432 15.8952 10.4962 15.8952 10.316C15.8952 10.1358 16.0421 9.98883 16.2227 9.98883ZM13.576 9.45536C13.7562 9.45536 13.9032 9.60235 13.9032 9.78255C13.9032 9.96275 13.7562 10.1098 13.576 10.1098C13.3958 10.1098 13.2488 9.96275 13.2488 9.78255C13.2488 9.60228 13.3958 9.45536 13.576 9.45536ZM13.3288 7.7057C13.5091 7.7057 13.656 7.85262 13.656 8.03289C13.656 8.21308 13.5091 8.36008 13.3288 8.36008C13.1486 8.36008 13.0017 8.21308 13.0017 8.03289C13.0017 7.85262 13.1486 7.7057 13.3288 7.7057ZM15.8023 7.52441C15.9825 7.52441 16.1295 7.6714 16.1295 7.85167C16.1295 8.03187 15.9825 8.17879 15.8023 8.17886C15.6221 8.17886 15.4751 8.03187 15.4751 7.85167C15.4751 7.6714 15.6221 7.52441 15.8023 7.52441Z" fill="url(#paint1_linear_24151_159675)"/>
<path d="M12.4095 0.165066C12.6293 -0.0550221 12.9859 -0.0550221 13.206 0.165066L14.7432 1.70234C14.9373 1.89642 14.9592 2.1997 14.8032 2.42604C14.1128 3.42839 14.2133 4.81134 15.1048 5.70281C15.9963 6.59428 17.3792 6.69484 18.3816 6.00442C18.6079 5.84842 18.9112 5.87029 19.1053 6.06437L20.6425 7.60157V7.60121C20.8626 7.8213 20.8626 8.17799 20.6425 8.39808L18.6392 10.4012L16.412 8.17392C16.4033 8.16527 16.3929 8.16113 16.3833 8.15488C16.4311 8.06377 16.4605 7.96182 16.4605 7.85196C16.4605 7.48902 16.1648 7.19337 15.802 7.19337C15.439 7.19337 15.1434 7.48902 15.1434 7.85196C15.1434 8.21483 15.439 8.51048 15.802 8.51048C15.9385 8.51048 16.0654 8.46856 16.1704 8.3975C16.1731 8.40098 16.1746 8.40512 16.1776 8.40825L18.4049 10.6354L17.6146 11.4258L16.8053 10.6165C16.8521 10.526 16.8813 10.4249 16.8813 10.3163C16.8813 9.95345 16.5856 9.65779 16.2227 9.65779C15.8598 9.65779 15.5642 9.95345 15.5642 10.3163C15.5642 10.6793 15.8598 10.9749 16.2227 10.9749C16.3569 10.9749 16.4813 10.9343 16.5853 10.865L17.3803 11.6601L15.9124 13.128L15.229 12.4074V11.7659C15.229 11.7659 15.2297 11.7631 15.2297 11.7617V9.7375C15.2296 9.69347 15.2123 9.65154 15.1812 9.6203L13.9052 8.34453C13.9559 8.2513 13.9871 8.14624 13.9871 8.03325C13.9871 7.67031 13.6914 7.37465 13.3285 7.37465C12.9656 7.37465 12.6699 7.67031 12.6699 8.03325C12.6699 8.39612 12.9656 8.69177 13.3285 8.69177C13.4582 8.69177 13.5781 8.65297 13.6799 8.58816L14.8983 9.80645V10.7912L14.1888 10.0453C14.1867 10.0432 14.1839 10.0425 14.1819 10.0405C14.2154 9.96144 14.2342 9.87439 14.2342 9.78328C14.2342 9.42034 13.9385 9.12468 13.5757 9.12468C13.2128 9.12468 12.9171 9.42034 12.9171 9.78328C12.9171 10.1461 13.2127 10.4418 13.5757 10.4418C13.7268 10.4418 13.8647 10.3884 13.976 10.3024L14.8972 11.2712V12.4743C14.8972 12.5169 14.9136 12.5575 14.9426 12.5883L15.6773 13.3631L15.0962 13.9442L13.6411 12.4892C13.7039 12.3884 13.742 12.2702 13.742 12.1429C13.742 11.7801 13.4464 11.4844 13.0835 11.4844C12.7206 11.4844 12.4249 11.7801 12.4249 12.1429C12.4249 12.5059 12.7206 12.8015 13.0835 12.8015C13.1989 12.8015 13.3057 12.769 13.4003 12.7167L14.8621 14.1784L13.2057 15.8349C12.9859 16.055 12.6293 16.055 12.4092 15.8349L11.8913 15.317C11.8799 15.3053 11.8688 15.2934 11.858 15.281C10.1749 13.3254 9.15521 10.7824 9.15521 7.99983C9.15521 5.21722 10.1753 2.67418 11.8584 0.718668C11.8692 0.706533 11.8803 0.694399 11.8917 0.682918L12.4095 0.165066ZM13.0835 11.8157C13.2641 11.8157 13.4106 11.9627 13.4106 12.1429C13.4106 12.3232 13.2637 12.4705 13.0835 12.4705C12.9033 12.4705 12.756 12.3235 12.756 12.1429C12.756 11.9627 12.9029 11.8157 13.0835 11.8157ZM16.2227 9.98883C16.4033 9.98883 16.5499 10.1358 16.5499 10.316C16.5499 10.4962 16.4029 10.6432 16.2227 10.6432C16.0425 10.6432 15.8952 10.4962 15.8952 10.316C15.8952 10.1358 16.0421 9.98883 16.2227 9.98883ZM13.576 9.45536C13.7562 9.45536 13.9032 9.60235 13.9032 9.78255C13.9032 9.96275 13.7562 10.1098 13.576 10.1098C13.3958 10.1098 13.2488 9.96275 13.2488 9.78255C13.2488 9.60228 13.3958 9.45536 13.576 9.45536ZM13.3288 7.7057C13.5091 7.7057 13.656 7.85262 13.656 8.03289C13.656 8.21308 13.5091 8.36008 13.3288 8.36008C13.1486 8.36008 13.0017 8.21308 13.0017 8.03289C13.0017 7.85262 13.1486 7.7057 13.3288 7.7057ZM15.8023 7.52441C15.9825 7.52441 16.1295 7.6714 16.1295 7.85167C16.1295 8.03187 15.9825 8.17879 15.8023 8.17886C15.6221 8.17886 15.4751 8.03187 15.4751 7.85167C15.4751 7.6714 15.6221 7.52441 15.8023 7.52441Z" fill="url(#paint2_linear_24151_159675)" fill-opacity="0.59"/>
<path d="M10.4038 2.83374C11.201 4.37015 11.6523 6.11472 11.6523 7.96531C11.6523 9.81583 11.201 11.5603 10.4037 13.0966C9.60643 11.5603 9.15521 9.81568 9.15521 7.96502C9.15521 6.11458 9.60651 4.37 10.4038 2.83374Z" fill="#B2845A"/>
<defs>
<linearGradient id="paint0_linear_24151_159675" x1="7.52036" y1="0.000226395" x2="8.24696" y2="15.9855" gradientUnits="userSpaceOnUse">
<stop stop-color="#0E4A86"/>
<stop offset="0.831731" stop-color="#527C98"/>
</linearGradient>
<linearGradient id="paint1_linear_24151_159675" x1="14.9814" y1="5.44953e-05" x2="14.9814" y2="15.9999" gradientUnits="userSpaceOnUse">
<stop stop-color="#DCAA46"/>
<stop offset="1" stop-color="#BE8E56"/>
</linearGradient>
<linearGradient id="paint2_linear_24151_159675" x1="11.6983" y1="7.99265" x2="17.8018" y2="9.55485" gradientUnits="userSpaceOnUse">
<stop stop-color="#F5DAC4" stop-opacity="0"/>
<stop offset="1" stop-color="#F5DAC4"/>
</linearGradient>
</defs>
</svg>
