<svg width="77" height="32" viewBox="0 0 77 32" fill="none" xmlns="http://www.w3.org/2000/svg">
<path d="M1.24288 13.3944L3.69456 15.846C4.00409 16.1556 4.48779 16.1904 4.84877 15.9416C6.44752 14.8405 8.65315 15.0008 10.0749 16.4226C11.4967 17.8443 11.657 20.0501 10.5559 21.6487C10.3071 22.0097 10.3419 22.4934 10.6515 22.8029L13.1031 25.2546C13.4541 25.6057 14.023 25.6057 14.3734 25.2546L15.1994 24.4288C15.2175 24.4105 15.2353 24.3911 15.2524 24.3718C17.9368 21.253 19.5637 17.1971 19.5637 12.7592C19.5637 8.32141 17.9374 4.26545 15.253 1.14665C15.2359 1.12672 15.2181 1.10794 15.1999 1.08917L14.374 0.263261C14.023 -0.0877536 13.4541 -0.0877536 13.1037 0.263261L1.24288 12.1241C0.891858 12.4751 0.891858 13.0439 1.24288 13.395V13.3944Z" fill="url(#paint0_linear_24240_8607)"/>
<path d="M20.7714 0.263261C21.1219 -0.0877536 21.6907 -0.0877536 22.0417 0.263261L24.4934 2.71503C24.8029 3.02456 24.8378 3.50826 24.589 3.86924C23.4879 5.46787 23.6483 7.6735 25.07 9.09529C26.4918 10.5171 28.6975 10.6775 30.2961 9.57633C30.6571 9.32752 31.1408 9.36241 31.4503 9.67193L33.9021 12.1236V12.123C34.253 12.474 34.2531 13.0429 33.9021 13.3939L30.707 16.5886L27.1548 13.0364C27.141 13.0226 27.1244 13.016 27.109 13.0061C27.1853 12.8607 27.2322 12.6981 27.2322 12.5229C27.2322 11.9441 26.7607 11.4725 26.182 11.4725C25.6031 11.4725 25.1316 11.9441 25.1316 12.5229C25.1316 13.1017 25.6031 13.5732 26.182 13.5732C26.3997 13.5732 26.602 13.5063 26.7695 13.393C26.7739 13.3986 26.7762 13.4052 26.7811 13.4101L30.3333 16.9622L29.0729 18.2227L27.7822 16.932C27.8568 16.7877 27.9033 16.6264 27.9033 16.4533C27.9033 15.8745 27.4318 15.403 26.853 15.403C26.2742 15.403 25.8027 15.8745 25.8027 16.4533C25.8027 17.0321 26.2742 17.5036 26.853 17.5036C27.067 17.5036 27.2654 17.4389 27.4312 17.3283L28.6992 18.5964L26.3581 20.9375L25.2681 19.7883V18.7652C25.2681 18.7652 25.2692 18.7606 25.2692 18.7584V15.5301C25.2691 15.4599 25.2416 15.393 25.1918 15.3432L23.1569 13.3085C23.2377 13.1598 23.2874 12.9923 23.2874 12.8121C23.2874 12.2332 22.8159 11.7617 22.2371 11.7617C21.6583 11.7617 21.1867 12.2332 21.1867 12.8121C21.1867 13.3908 21.6583 13.8623 22.2371 13.8623C22.4439 13.8623 22.6351 13.8004 22.7975 13.6971L24.7407 15.6401V17.2107L23.6091 16.021C23.6058 16.0177 23.6013 16.0166 23.5981 16.0134C23.6516 15.8873 23.6815 15.7485 23.6815 15.6031C23.6815 15.0243 23.21 14.5528 22.6313 14.5528C22.0525 14.5528 21.581 15.0243 21.5809 15.6031C21.5809 16.1819 22.0524 16.6534 22.6313 16.6534C22.8723 16.6534 23.0922 16.5682 23.2698 16.4311L24.739 17.9762V19.895C24.739 19.9629 24.765 20.0277 24.8114 20.0769L25.9831 21.3125L25.0564 22.2394L22.7357 19.9188C22.8358 19.758 22.8966 19.5694 22.8966 19.3665C22.8966 18.7878 22.4251 18.3162 21.8462 18.3162C21.2675 18.3162 20.796 18.7878 20.796 19.3665C20.796 19.9453 21.2675 20.4169 21.8462 20.4169C22.0304 20.4169 22.2007 20.365 22.3516 20.2815L24.683 22.6129L22.0412 25.2547C21.6907 25.6057 21.1219 25.6057 20.7708 25.2547L19.9449 24.4288C19.9267 24.41 19.909 24.3911 19.8919 24.3713C17.2075 21.2524 15.5812 17.1966 15.5812 12.7588C15.5812 8.32083 17.2081 4.26499 19.8924 1.14619C19.9096 1.12684 19.9273 1.10748 19.9455 1.08917L20.7714 0.263261ZM21.8462 18.8447C22.1343 18.8447 22.3681 19.0791 22.3681 19.3665C22.3681 19.654 22.1338 19.8889 21.8462 19.8889C21.5589 19.8889 21.324 19.6545 21.324 19.3665C21.324 19.0791 21.5583 18.8447 21.8462 18.8447ZM26.853 15.931C27.141 15.931 27.3749 16.1653 27.3749 16.4528C27.3748 16.7402 27.1404 16.9746 26.853 16.9746C26.5655 16.9746 26.3306 16.7402 26.3306 16.4528C26.3306 16.1653 26.565 15.931 26.853 15.931ZM22.6318 15.0802C22.9192 15.0802 23.1537 15.3146 23.1537 15.602C23.1537 15.8894 22.9192 16.1239 22.6318 16.1239C22.3443 16.1239 22.1099 15.8894 22.1099 15.602C22.1099 15.3145 22.3443 15.0802 22.6318 15.0802ZM22.2376 12.2897C22.5251 12.2897 22.7594 12.524 22.7594 12.8115C22.7594 13.0989 22.5251 13.3333 22.2376 13.3333C21.9502 13.3333 21.7159 13.0989 21.7159 12.8115C21.7159 12.524 21.9502 12.2897 22.2376 12.2897ZM26.1824 12.0005C26.4699 12.0005 26.7042 12.235 26.7042 12.5225C26.7042 12.8099 26.4699 13.0442 26.1824 13.0443C25.895 13.0443 25.6607 12.8099 25.6607 12.5225C25.6607 12.235 25.895 12.0005 26.1824 12.0005Z" fill="url(#paint1_linear_24240_8607)"/>
<path d="M20.7714 0.263261C21.1219 -0.0877536 21.6907 -0.0877536 22.0417 0.263261L24.4934 2.71503C24.8029 3.02456 24.8378 3.50826 24.589 3.86924C23.4879 5.46787 23.6483 7.6735 25.07 9.09529C26.4918 10.5171 28.6975 10.6775 30.2961 9.57633C30.6571 9.32752 31.1408 9.36241 31.4503 9.67193L33.9021 12.1236V12.123C34.253 12.474 34.2531 13.0429 33.9021 13.3939L30.707 16.5886L27.1548 13.0364C27.141 13.0226 27.1244 13.016 27.109 13.0061C27.1853 12.8607 27.2322 12.6981 27.2322 12.5229C27.2322 11.9441 26.7607 11.4725 26.182 11.4725C25.6031 11.4725 25.1316 11.9441 25.1316 12.5229C25.1316 13.1017 25.6031 13.5732 26.182 13.5732C26.3997 13.5732 26.602 13.5063 26.7695 13.393C26.7739 13.3986 26.7762 13.4052 26.7811 13.4101L30.3333 16.9622L29.0729 18.2227L27.7822 16.932C27.8568 16.7877 27.9033 16.6264 27.9033 16.4533C27.9033 15.8745 27.4318 15.403 26.853 15.403C26.2742 15.403 25.8027 15.8745 25.8027 16.4533C25.8027 17.0321 26.2742 17.5036 26.853 17.5036C27.067 17.5036 27.2654 17.4389 27.4312 17.3283L28.6992 18.5964L26.3581 20.9375L25.2681 19.7883V18.7652C25.2681 18.7652 25.2692 18.7606 25.2692 18.7584V15.5301C25.2691 15.4599 25.2416 15.393 25.1918 15.3432L23.1569 13.3085C23.2377 13.1598 23.2874 12.9923 23.2874 12.8121C23.2874 12.2332 22.8159 11.7617 22.2371 11.7617C21.6583 11.7617 21.1867 12.2332 21.1867 12.8121C21.1867 13.3908 21.6583 13.8623 22.2371 13.8623C22.4439 13.8623 22.6351 13.8004 22.7975 13.6971L24.7407 15.6401V17.2107L23.6091 16.021C23.6058 16.0177 23.6013 16.0166 23.5981 16.0134C23.6516 15.8873 23.6815 15.7485 23.6815 15.6031C23.6815 15.0243 23.21 14.5528 22.6313 14.5528C22.0525 14.5528 21.581 15.0243 21.5809 15.6031C21.5809 16.1819 22.0524 16.6534 22.6313 16.6534C22.8723 16.6534 23.0922 16.5682 23.2698 16.4311L24.739 17.9762V19.895C24.739 19.9629 24.765 20.0277 24.8114 20.0769L25.9831 21.3125L25.0564 22.2394L22.7357 19.9188C22.8358 19.758 22.8966 19.5694 22.8966 19.3665C22.8966 18.7878 22.4251 18.3162 21.8462 18.3162C21.2675 18.3162 20.796 18.7878 20.796 19.3665C20.796 19.9453 21.2675 20.4169 21.8462 20.4169C22.0304 20.4169 22.2007 20.365 22.3516 20.2815L24.683 22.6129L22.0412 25.2547C21.6907 25.6057 21.1219 25.6057 20.7708 25.2547L19.9449 24.4288C19.9267 24.41 19.909 24.3911 19.8919 24.3713C17.2075 21.2524 15.5812 17.1966 15.5812 12.7588C15.5812 8.32083 17.2081 4.26499 19.8924 1.14619C19.9096 1.12684 19.9273 1.10748 19.9455 1.08917L20.7714 0.263261ZM21.8462 18.8447C22.1343 18.8447 22.3681 19.0791 22.3681 19.3665C22.3681 19.654 22.1338 19.8889 21.8462 19.8889C21.5589 19.8889 21.324 19.6545 21.324 19.3665C21.324 19.0791 21.5583 18.8447 21.8462 18.8447ZM26.853 15.931C27.141 15.931 27.3749 16.1653 27.3749 16.4528C27.3748 16.7402 27.1404 16.9746 26.853 16.9746C26.5655 16.9746 26.3306 16.7402 26.3306 16.4528C26.3306 16.1653 26.565 15.931 26.853 15.931ZM22.6318 15.0802C22.9192 15.0802 23.1537 15.3146 23.1537 15.602C23.1537 15.8894 22.9192 16.1239 22.6318 16.1239C22.3443 16.1239 22.1099 15.8894 22.1099 15.602C22.1099 15.3145 22.3443 15.0802 22.6318 15.0802ZM22.2376 12.2897C22.5251 12.2897 22.7594 12.524 22.7594 12.8115C22.7594 13.0989 22.5251 13.3333 22.2376 13.3333C21.9502 13.3333 21.7159 13.0989 21.7159 12.8115C21.7159 12.524 21.9502 12.2897 22.2376 12.2897ZM26.1824 12.0005C26.4699 12.0005 26.7042 12.235 26.7042 12.5225C26.7042 12.8099 26.4699 13.0442 26.1824 13.0443C25.895 13.0443 25.6607 12.8099 25.6607 12.5225C25.6607 12.235 25.895 12.0005 26.1824 12.0005Z" fill="url(#paint2_linear_24240_8607)" fill-opacity="0.59"/>
<path d="M17.5725 4.51953C18.844 6.96991 19.5638 9.7523 19.5638 12.7038C19.5638 15.6551 18.8439 18.4374 17.5724 20.8875C16.3008 18.4373 15.5812 15.6549 15.5812 12.7033C15.5812 9.75207 16.3009 6.96968 17.5725 4.51953Z" fill="#B2845A"/>
<path d="M46.9521 25.2922L49.3313 21.1719C48.9443 21.1776 48.6436 21.1853 48.5823 21.191C48.3965 21.2102 48.1762 21.2198 47.9272 21.2198C47.1035 21.2198 46.4828 21.0359 46.0652 20.6719C45.6457 20.3079 45.4369 19.6605 45.4369 18.7314V9.07124H49.2508V4.98342H45.4369V0.115967H39.9162V4.9815H36.3245L36.3436 9.06932H39.9162V19.3233C39.9162 21.4535 40.4525 22.9821 41.5253 23.9111H41.5272C42.5999 24.8402 43.9657 25.3037 46.1878 25.3037C46.4522 25.3037 46.7069 25.298 46.9521 25.2903V25.2922Z" fill="url(#paint3_linear_24240_8607)"/>
<path d="M50.425 4.9834H55.9094V25.2712H50.425V4.9834Z" fill="url(#paint4_linear_24240_8607)"/>
<path d="M57.0818 4.98736H62.5469V8.4622H62.6791C63.0412 7.65766 63.5181 6.96231 64.112 6.38189C64.7039 5.79956 65.3954 5.35515 66.1904 5.04483C66.9834 4.73451 67.8531 4.57935 68.8032 4.57935C70.5005 4.57935 71.9601 4.99119 73.1823 5.81489C74.4063 6.63858 75.3469 7.82431 76.0097 9.37209C76.6725 10.9199 77 12.7703 77 14.9272V14.9464C77 17.1014 76.6725 18.9537 76.0173 20.5015C75.3622 22.0493 74.4293 23.2389 73.2187 24.0683C72.008 24.8997 70.5598 25.3134 68.876 25.3134C67.9259 25.3134 67.0467 25.1583 66.2364 24.8499C65.4261 24.5395 64.7192 24.1047 64.1216 23.5396C63.522 22.9745 63.0354 22.2964 62.6619 21.5053H62.5489V31.4068H57.0837V4.98736H57.0818ZM69.3607 20.0993C70.0235 19.6242 70.5311 18.9461 70.8874 18.0649C71.2437 17.1857 71.4199 16.1455 71.4199 14.9445V14.9253C71.4199 13.7108 71.2399 12.6688 70.8778 11.7953C70.5158 10.9218 70.0043 10.2513 69.3415 9.77819C68.6787 9.30888 67.8991 9.07135 67.0007 9.07135C66.1023 9.07135 65.3341 9.30888 64.6598 9.78777C63.9855 10.2647 63.4607 10.9429 63.0891 11.8221C62.7136 12.7013 62.5278 13.7415 62.5278 14.9426V14.9617C62.5278 16.1513 62.7174 17.1838 63.0986 18.0649C63.4798 18.9442 64.0028 19.6223 64.6694 20.0993C65.338 20.5762 66.1138 20.8157 67.0007 20.8157C67.8876 20.8157 68.6979 20.5781 69.3607 20.0993Z" fill="url(#paint5_linear_24240_8607)"/>
<defs>
<linearGradient id="paint0_linear_24240_8607" x1="12.9737" y1="-2.83016e-05" x2="14.1325" y2="25.4946" gradientUnits="userSpaceOnUse">
<stop stop-color="#343434"/>
<stop offset="1" stop-color="#B0B0B0"/>
</linearGradient>
<linearGradient id="paint1_linear_24240_8607" x1="24.8733" y1="8.69135e-05" x2="24.8733" y2="25.5179" gradientUnits="userSpaceOnUse">
<stop stop-color="#CBB57D"/>
<stop offset="1" stop-color="#BA6D12"/>
</linearGradient>
<linearGradient id="paint2_linear_24240_8607" x1="19.6371" y1="12.7473" x2="29.3714" y2="15.2388" gradientUnits="userSpaceOnUse">
<stop stop-color="#F5DAC4" stop-opacity="0"/>
<stop offset="1" stop-color="#F5DAC4"/>
</linearGradient>
<linearGradient id="paint3_linear_24240_8607" x1="42.8279" y1="0.115967" x2="42.8279" y2="25.3037" gradientUnits="userSpaceOnUse">
<stop stop-color="white"/>
<stop offset="0.990385" stop-color="#939292"/>
</linearGradient>
<linearGradient id="paint4_linear_24240_8607" x1="53.1672" y1="4.9834" x2="53.1672" y2="25.2712" gradientUnits="userSpaceOnUse">
<stop stop-color="white"/>
<stop offset="0.990385" stop-color="#939292"/>
</linearGradient>
<linearGradient id="paint5_linear_24240_8607" x1="67.0409" y1="4.57935" x2="67.0409" y2="31.4068" gradientUnits="userSpaceOnUse">
<stop stop-color="white"/>
<stop offset="0.990385" stop-color="#939292"/>
</linearGradient>
</defs>
</svg>
