<svg width="27" height="27" viewBox="0 0 27 27" fill="none" xmlns="http://www.w3.org/2000/svg">
<path d="M0.0810547 13.5225C0.0810547 16.0893 0.81959 18.4874 2.09593 20.5146V6.53052C0.81959 8.56143 0.0810547 10.9558 0.0810547 13.5225Z" fill="#CCA669"/>
<path d="M6.12195 24.5989C10.2691 27.4654 16.6697 27.4654 20.8169 24.5989H6.12195Z" fill="#CCA669"/>
<path d="M4.17139 3.99756V22.5456H23.2673C24.0058 21.7624 24.6496 20.8893 25.1799 19.9451H6.79981V2.03784C5.84161 2.58117 4.95916 3.24065 4.17139 3.99381" fill="#CCA669"/>
<path d="M8.87915 5.74349V9.02218C14.742 3.21422 23.8354 11.8699 18.1885 17.8877H21.4456C25.9639 10.2212 16.5107 1.09338 8.87915 5.74349Z" fill="#CCA669"/>
<path d="M13.4694 0.276645C11.856 0.276645 10.3108 0.561423 8.87915 1.08227V3.71645C17.6469 -0.555204 27.6304 9.13846 23.4756 17.8916H26.1154C29.2173 9.52816 22.5212 0.108027 13.4694 0.276645Z" fill="#CCA669"/>
</svg>
